<svg xmlns="http://www.w3.org/2000/svg" width="128" height="128" viewBox="0 0 33.867 33.867" id="soundcloud"><path fill="#06f" d="M18.33 27.715h9.683a4.785 4.785 0 0 0 4.795-4.795 4.782 4.782 0 0 0-3.26-4.543A8.963 8.963 0 0 0 18.51 6.565c-.545.17-1.578.821-1.578 2.713V26.36c0 .706.459 1.356 1.398 1.356z" paint-order="fill markers stroke"></path><path fill="#00a1ff" d="M13.625 8.504c.507 0 .916.647.916 1.45 0 0 .393 5.11.395 7.828.003 2.72-.395 8.482-.395 8.482-.022.804-.409 1.451-.916 1.451-.508 0-.916-.647-.916-1.45 0 0-.378-5.698-.374-8.419.004-2.72.374-7.891.374-7.891.038-.803.408-1.451.916-1.451zm-3.578 3.34c.507 0 .916.647.916 1.451 0 0 .392 3.686.395 6.406.003 2.719-.395 6.563-.395 6.563-.022.804-.409 1.451-.916 1.451-.508 0-.916-.647-.916-1.45 0 0-.379-3.78-.375-6.5.004-2.722.375-6.47.375-6.47.038-.803.408-1.45.916-1.45z" paint-order="fill markers stroke"></path><path fill="#a8d0ff" d="M6.21 12.638c.508 0 .916.647.916 1.451 0 0 .393 3.686.396 6.405.002 2.72-.396 5.77-.396 5.77-.022.804-.408 1.451-.916 1.451-.507 0-.916-.647-.916-1.45 0 0-.378-2.986-.374-5.707.004-2.72.374-6.469.374-6.469.038-.803.409-1.45.916-1.45zm-3.829 6.02c.508 0 .916.646.916 1.45 0 0 .363 2.032.363 3.165 0 1.132-.363 2.991-.363 2.991-.022.804-.408 1.451-.916 1.451-.507 0-.916-.647-.916-1.45 0 0-.409-1.597-.407-2.929.002-1.332.407-3.228.407-3.228.038-.803.409-1.45.916-1.45z" paint-order="fill markers stroke"></path></svg>